<svg width="40" height="42" viewBox="0 0 40 42" fill="none" xmlns="http://www.w3.org/2000/svg">
<g filter="url(#filter0_d_2_3)">
<path d="M14.796 25.618C15.1484 25.8668 15.5695 26 16.0009 25.9989C16.4324 25.9978 16.8528 25.8626 17.204 25.612C17.56 25.352 17.83 24.992 17.978 24.576L18.872 21.83C19.1014 21.1417 19.4877 20.5162 20.0004 20.0028C20.513 19.4895 21.138 19.1023 21.826 18.872L24.608 17.972C25.0193 17.8231 25.3735 17.5489 25.6207 17.188C25.868 16.8271 25.9957 16.3977 25.986 15.9604C25.9763 15.5231 25.8296 15.0998 25.5666 14.7503C25.3036 14.4007 24.9375 14.1425 24.52 14.012L21.77 13.116C21.0813 12.8868 20.4554 12.5007 19.9417 11.988C19.428 11.4753 19.0405 10.8502 18.81 10.162L17.906 7.38599C17.7604 6.97702 17.491 6.62358 17.1352 6.37485C16.7794 6.12613 16.355 5.99448 15.9209 5.99822C15.4868 6.00196 15.0647 6.1409 14.7132 6.39572C14.3618 6.65054 14.0985 7.00857 13.96 7.41999L13.046 10.22C12.8165 10.8897 12.4381 11.4987 11.9393 12.001C11.4404 12.5033 10.8341 12.8859 10.166 13.12L7.38599 14.014C6.97718 14.1599 6.62393 14.4294 6.37529 14.7852C6.12664 15.141 5.99493 15.5653 5.99845 15.9994C6.00197 16.4334 6.14054 16.8556 6.39492 17.2073C6.6493 17.559 7.00687 17.8228 7.41799 17.962L10.166 18.852C10.8581 19.0817 11.4867 19.4706 12.0012 19.9875C12.5156 20.5044 12.9016 21.1348 13.128 21.828L14.032 24.61C14.176 25.018 14.444 25.37 14.796 25.618ZM14.966 10.788L16.02 8.03399L16.9 10.788C17.227 11.7741 17.7803 12.6701 18.5154 13.4042C19.2506 14.1384 20.1474 14.6903 21.134 15.016L23.946 16.076L21.182 16.97C20.1962 17.2982 19.3006 17.8518 18.5663 18.5868C17.832 19.3218 17.2792 20.2179 16.952 21.204L15.906 23.96L15.008 21.202C14.6853 20.2163 14.1375 19.3193 13.408 18.582C12.6693 17.8467 11.7716 17.2911 10.784 16.958L8.02799 15.914L10.8 15.014C11.7732 14.6769 12.656 14.1205 13.38 13.388C14.0984 12.6524 14.6407 11.7634 14.966 10.788ZM27.07 33.702C27.2746 33.8458 27.5098 33.9401 27.7571 33.9773C28.0044 34.0145 28.257 33.9937 28.4948 33.9165C28.7327 33.8393 28.9493 33.7078 29.1276 33.5324C29.3059 33.357 29.4409 33.1426 29.522 32.906L30.018 31.382C30.1254 31.0662 30.3032 30.7789 30.538 30.542C30.774 30.302 31.062 30.126 31.378 30.022L32.922 29.518C33.2406 29.408 33.5163 29.2003 33.7099 28.9243C33.9034 28.6484 34.0049 28.3183 33.9998 27.9813C33.9947 27.6443 33.8833 27.3175 33.6815 27.0476C33.4797 26.7776 33.1978 26.5783 32.876 26.478L31.348 25.978C31.0321 25.8722 30.7449 25.6947 30.509 25.4595C30.2731 25.2242 30.0947 24.9376 29.988 24.622L29.484 23.076C29.3758 22.758 29.1702 22.4822 28.8965 22.2875C28.6227 22.0929 28.2947 21.9893 27.9588 21.9916C27.6229 21.9938 27.2962 22.1016 27.0251 22.2999C26.7539 22.4981 26.552 22.7766 26.448 23.096L25.954 24.62C25.8519 24.9335 25.6787 25.2192 25.448 25.4548C25.2173 25.6903 24.9353 25.8694 24.624 25.978L23.078 26.482C22.7599 26.5898 22.4838 26.795 22.2888 27.0685C22.0938 27.342 21.9898 27.6699 21.9916 28.0058C21.9934 28.3416 22.1008 28.6684 22.2986 28.9399C22.4965 29.2113 22.7748 29.4135 23.094 29.518L24.62 30.012C24.94 30.12 25.228 30.298 25.464 30.534C25.702 30.772 25.878 31.06 25.98 31.378L26.486 32.926C26.5956 33.2389 26.7996 33.5101 27.07 33.702ZM25.244 28.116L24.886 28L25.254 27.872C25.859 27.6594 26.4076 27.3116 26.8582 26.8552C27.3087 26.3988 27.6492 25.8457 27.854 25.238L27.97 24.882L28.09 25.244C28.2942 25.857 28.6383 26.4139 29.0952 26.8708C29.552 27.3276 30.109 27.6718 30.722 27.876L31.112 28.002L30.752 28.122C30.1378 28.3267 29.5799 28.672 29.1226 29.1303C28.6653 29.5886 28.3213 30.1473 28.118 30.762L28 31.124L27.884 30.764C27.6809 30.1476 27.3363 29.5872 26.8779 29.1278C26.4195 28.6683 25.8599 28.3225 25.244 28.118" fill="#FDE080"/>
</g>
<defs>
<filter id="filter0_d_2_3" x="-4" y="0" width="48" height="48" filterUnits="userSpaceOnUse" color-interpolation-filters="sRGB">
<feFlood flood-opacity="0" result="BackgroundImageFix"/>
<feColorMatrix in="SourceAlpha" type="matrix" values="0 0 0 0 0 0 0 0 0 0 0 0 0 0 0 0 0 0 127 0" result="hardAlpha"/>
<feOffset dy="4"/>
<feGaussianBlur stdDeviation="2"/>
<feComposite in2="hardAlpha" operator="out"/>
<feColorMatrix type="matrix" values="0 0 0 0 0.99904 0 0 0 0 0.774904 0 0 0 0 0.0397404 0 0 0 0.5 0"/>
<feBlend mode="normal" in2="BackgroundImageFix" result="effect1_dropShadow_2_3"/>
<feBlend mode="normal" in="SourceGraphic" in2="effect1_dropShadow_2_3" result="shape"/>
</filter>
</defs>
</svg>
