<svg width="36" height="36" viewBox="0 0 36 36" fill="none" xmlns="http://www.w3.org/2000/svg">
<path fill-rule="evenodd" clip-rule="evenodd" d="M7.875 2.25C7.57663 2.25 7.29048 2.36853 7.07951 2.57951C6.86853 2.79049 6.75 3.07663 6.75 3.375V32.625C6.75 32.9234 6.86853 33.2095 7.07951 33.4205C7.29048 33.6315 7.57663 33.75 7.875 33.75H28.125C28.4234 33.75 28.7095 33.6315 28.9205 33.4205C29.1315 33.2095 29.25 32.9234 29.25 32.625V11.25C29.2503 11.1022 29.2214 10.9557 29.165 10.8191C29.1087 10.6824 29.0259 10.5582 28.9215 10.4535L21.0465 2.5785C20.9418 2.4741 20.8176 2.39135 20.6809 2.33498C20.5443 2.27861 20.3978 2.24974 20.25 2.25H7.875ZM25.4093 10.125L21.375 6.09075V10.125H25.4093ZM16.875 12.375H11.25V10.125H16.875V12.375ZM24.75 19.125H11.25V16.875H24.75V19.125ZM11.25 25.875H24.75V23.625H11.25V25.875Z" fill="#A4A4A4"/>
</svg>
