<svg width="48" height="49" viewBox="0 0 48 49" fill="none" xmlns="http://www.w3.org/2000/svg">
<g clip-path="url(#clip0_226_332)">
<path d="M16.7211 2.07874C11.9252 3.7425 7.78915 6.90037 4.92057 11.0885C2.052 15.2766 0.602075 20.2743 0.783766 25.3474C0.965457 30.4204 2.76919 35.3016 5.93002 39.2738C9.09085 43.2459 13.4422 46.0998 18.3449 47.4162C22.3196 48.4419 26.4839 48.4869 30.4799 47.5475C34.0998 46.7344 37.4465 44.9951 40.1924 42.5C43.0502 39.8238 45.1245 36.4193 46.1924 32.6525C47.3531 28.5563 47.5596 24.2485 46.7961 20.06H24.4761V29.3187H37.4024C37.144 30.7954 36.5904 32.2049 35.7747 33.4626C34.9589 34.7204 33.8978 35.8006 32.6549 36.6387C31.0764 37.6829 29.2971 38.3854 27.4311 38.7012C25.5596 39.0492 23.6401 39.0492 21.7686 38.7012C19.8718 38.3091 18.0775 37.5262 16.4999 36.4025C13.9654 34.6084 12.0624 32.0597 11.0624 29.12C10.0454 26.1252 10.0454 22.8785 11.0624 19.8837C11.7742 17.7846 12.951 15.8733 14.5049 14.2925C16.2831 12.4503 18.5344 11.1335 21.0117 10.4865C23.489 9.83958 26.0967 9.88748 28.5486 10.625C30.464 11.213 32.2155 12.2403 33.6636 13.625C35.1211 12.175 36.5761 10.7212 38.0286 9.26374C38.7786 8.47999 39.5961 7.73374 40.3349 6.93124C38.1245 4.87428 35.5299 3.27371 32.6999 2.22124C27.5462 0.349955 21.9073 0.299666 16.7211 2.07874Z" fill="white"/>
<path d="M16.7214 2.07873C21.9071 0.298448 27.5461 0.347413 32.7002 2.21748C35.5307 3.2771 38.1241 4.88538 40.3314 6.94998C39.5814 7.75248 38.7902 8.50248 38.0252 9.28248C36.5702 10.735 35.1164 12.1825 33.6639 13.625C32.2158 12.2402 30.4643 11.213 28.5489 10.625C26.0978 9.88489 23.4902 9.83421 21.0122 10.4785C18.5342 11.1228 16.2816 12.4372 14.5014 14.2775C12.9475 15.8582 11.7708 17.7695 11.0589 19.8687L3.28516 13.85C6.06769 8.33209 10.8855 4.11132 16.7214 2.07873Z" fill="#E33629"/>
<path d="M1.2228 19.8125C1.64063 17.7417 2.33432 15.7363 3.2853 13.85L11.0591 19.8837C10.0421 22.8785 10.0421 26.1252 11.0591 29.12C8.46905 31.12 5.8778 33.13 3.2853 35.15C0.904617 30.4112 0.178549 25.0119 1.2228 19.8125Z" fill="#F8BD00"/>
<path d="M24.4763 20.0563H46.7963C47.5598 24.2448 47.3532 28.5525 46.1925 32.6488C45.1247 36.4156 43.0503 39.8201 40.1925 42.4963C37.6838 40.5388 35.1638 38.5963 32.655 36.6388C33.8988 35.7998 34.9604 34.7184 35.7762 33.4593C36.592 32.2002 37.1451 30.7893 37.4025 29.3113H24.4763C24.4725 26.2288 24.4763 23.1425 24.4763 20.0563Z" fill="#587DBD"/>
<path d="M3.28125 35.15C5.87375 33.15 8.465 31.14 11.055 29.12C12.057 32.0607 13.9628 34.6096 16.5 36.4025C18.0825 37.521 19.8807 38.2975 21.78 38.6825C23.6515 39.0305 25.571 39.0305 27.4425 38.6825C29.3085 38.3666 31.0878 37.6641 32.6663 36.62C35.175 38.5775 37.695 40.52 40.2038 42.4775C37.4583 44.974 34.1116 46.7145 30.4912 47.5287C26.4953 48.4681 22.331 48.4231 18.3563 47.3975C15.2126 46.5581 12.2763 45.0785 9.73125 43.0512C7.03748 40.9126 4.83733 38.2174 3.28125 35.15Z" fill="#319F43"/>
</g>
<defs>
<clipPath id="clip0_226_332">
<rect width="48" height="48" fill="white" transform="translate(0 0.5)"/>
</clipPath>
</defs>
</svg>
