<svg width="48" height="49" viewBox="0 0 48 49" fill="none" xmlns="http://www.w3.org/2000/svg">
<path d="M44 30.58C44 34.96 40.48 38.5 36.14 38.5H11.86C7.52 38.5 4 34.96 4 30.58C4 26.64 6.86 23.38 10.62 22.78C10.56 22.5 10.54 22.22 10.54 21.92C10.54 19.16 12.76 16.9 15.52 16.9C16.74 16.9 17.88 17.36 18.74 18.1C20.28 14.6 22.26 11.38 27.82 11.38C34.56 11.38 37.74 16.62 37.74 22.16C37.74 22.38 37.74 22.62 37.72 22.84C39.4967 23.2122 41.091 24.185 42.2347 25.5946C43.3784 27.0042 44.0018 28.7647 44 30.58Z" fill="black"/>
</svg>
