<svg width="36" height="36" viewBox="0 0 36 36" fill="none" xmlns="http://www.w3.org/2000/svg">
<path d="M4.5 33V3H28.5V16.65C28.05 16.6 27.55 16.575 27 16.575C26.45 16.575 25.95 16.6 25.5 16.65V6H18V16.5L14.25 14.25L10.5 16.5V6H7.5V30H16.95C17.1 30.5 17.3065 31.019 17.5695 31.557C17.8325 32.095 18.101 32.576 18.375 33H4.5ZM27 34.5C24.925 34.5 23.1565 33.7685 21.6945 32.3055C20.2325 30.8425 19.501 29.074 19.5 27C19.499 24.926 20.2305 23.1575 21.6945 21.6945C23.1585 20.2315 24.927 19.5 27 19.5C29.073 19.5 30.842 20.2315 32.307 21.6945C33.772 23.1575 34.503 24.926 34.5 27C34.497 29.074 33.7655 30.843 32.3055 32.307C30.8455 33.771 29.077 34.502 27 34.5ZM25.125 30.75L31.125 27L25.125 23.25V30.75ZM7.5 6H25.5H16.5H16.95H7.5Z" fill="#A4A4A4"/>
</svg>
