<svg width="25" height="24" viewBox="0 0 25 24" fill="none" xmlns="http://www.w3.org/2000/svg">
<path d="M12.5 12C10.85 12 9.4375 11.4125 8.2625 10.2375C7.0875 9.0625 6.5 7.65 6.5 6C6.5 4.35 7.0875 2.9375 8.2625 1.7625C9.4375 0.5875 10.85 0 12.5 0C14.15 0 15.5625 0.5875 16.7375 1.7625C17.9125 2.9375 18.5 4.35 18.5 6C18.5 7.65 17.9125 9.0625 16.7375 10.2375C15.5625 11.4125 14.15 12 12.5 12ZM0.5 24V19.8C0.5 18.95 0.719 18.169 1.157 17.457C1.595 16.745 2.176 16.201 2.9 15.825C4.45 15.05 6.025 14.469 7.625 14.082C9.225 13.695 10.85 13.501 12.5 13.5C14.15 13.499 15.775 13.693 17.375 14.082C18.975 14.471 20.55 15.052 22.1 15.825C22.825 16.2 23.4065 16.744 23.8445 17.457C24.2825 18.17 24.501 18.951 24.5 19.8V24H0.5Z" fill="#E70BBB"/>
</svg>
