<svg width="100" height="80" viewBox="0 0 100 80" fill="none" xmlns="http://www.w3.org/2000/svg">
<g clip-path="url(#clip0_403_3649)">
<path d="M18.1796 79.6024V74.3075C18.1796 72.2774 16.9789 70.954 14.9207 70.954C13.8917 70.954 12.7769 71.3069 12.005 72.4543C11.405 71.4834 10.5476 70.954 9.26128 70.954C8.40347 70.954 7.54644 71.2185 6.86011 72.1893V71.1305H5.05933V79.6024H6.86011V74.925C6.86011 73.4251 7.63198 72.7188 8.83276 72.7188C10.0328 72.7188 10.6335 73.5132 10.6335 74.925V79.6024H12.4343V74.925C12.4343 73.4251 13.2914 72.7188 14.4062 72.7188C15.607 72.7188 16.207 73.5132 16.207 74.925V79.6024H18.1796ZM44.848 71.1305H41.9328V68.5713H40.132V71.1305H38.5027V72.8068H40.1316V76.6902C40.1316 78.632 40.9035 79.7789 42.9617 79.7789C43.7335 79.7789 44.5906 79.5144 45.1914 79.1614L44.6765 77.5727C44.1621 77.9256 43.5621 78.0141 43.1332 78.0141C42.2757 78.0141 41.9328 77.4846 41.9328 76.6018V72.8068H44.848V71.1305ZM60.1121 70.9536C59.0832 70.9536 58.3972 71.4834 57.9683 72.1893V71.1305H56.1675V79.6024H57.9683V74.837C57.9683 73.4251 58.5683 72.6308 59.6832 72.6308C60.0261 72.6308 60.455 72.7192 60.798 72.8072L61.3125 71.0424C60.9695 70.954 60.455 70.954 60.1121 70.954M37.0449 71.8368C36.1871 71.2189 34.9867 70.9544 33.7003 70.9544C31.6425 70.9544 30.2707 72.0133 30.2707 73.69C30.2707 75.1023 31.2996 75.8963 33.1003 76.1612L33.9578 76.2496C34.9011 76.4257 35.4156 76.6907 35.4156 77.1321C35.4156 77.7495 34.7296 78.191 33.5289 78.191C32.3281 78.191 31.3851 77.7495 30.7847 77.3085L29.9273 78.7204C30.8707 79.4263 32.157 79.7793 33.4429 79.7793C35.8441 79.7793 37.2164 78.6324 37.2164 77.0436C37.2164 75.5433 36.1015 74.7489 34.3863 74.4844L33.5289 74.396C32.757 74.3075 32.157 74.1315 32.157 73.602C32.157 72.9841 32.757 72.6312 33.7003 72.6312C34.7296 72.6312 35.7585 73.0722 36.273 73.3371L37.0449 71.8368ZM84.8945 70.9544C83.8652 70.9544 83.1793 71.4838 82.7503 72.1898V71.1309H80.9496V79.6028H82.7503V74.8374C82.7503 73.4255 83.3507 72.6312 84.4652 72.6312C84.8085 72.6312 85.2374 72.7196 85.5804 72.8076L86.0949 71.0428C85.7519 70.9544 85.2375 70.9544 84.8945 70.9544ZM61.9128 75.3668C61.9128 77.926 63.6277 79.7793 66.2863 79.7793C67.4867 79.7793 68.3441 79.5148 69.2015 78.8088L68.3441 77.3085C67.6582 77.838 66.9722 78.1025 66.2003 78.1025C64.7425 78.1025 63.7136 77.0436 63.7136 75.3668C63.7136 73.7785 64.7425 72.7192 66.2003 72.6312C66.9722 72.6312 67.6582 72.8957 68.3441 73.4255L69.2015 71.9252C68.3441 71.2189 67.4867 70.9544 66.2863 70.9544C63.6277 70.9544 61.9128 72.8076 61.9128 75.3668ZM78.5488 75.3668V71.1309H76.748V72.1898C76.1476 71.3958 75.2902 70.9544 74.1753 70.9544C71.8601 70.9544 70.0593 72.8076 70.0593 75.3668C70.0593 77.926 71.8601 79.7793 74.1753 79.7793C75.3757 79.7793 76.2336 79.3383 76.748 78.5439V79.6028H78.5488V75.3668ZM71.9457 75.3668C71.9457 73.8665 72.889 72.6312 74.4324 72.6312C75.8902 72.6312 76.9195 73.7785 76.9195 75.3668C76.9195 76.8671 75.8902 78.1025 74.4324 78.1025C72.889 78.0141 71.9457 76.8671 71.9457 75.3668ZM50.4222 70.9544C48.021 70.9544 46.3058 72.7192 46.3058 75.3668C46.3058 78.0145 48.0207 79.7793 50.5078 79.7793C51.7082 79.7793 52.9089 79.4263 53.8523 78.6324L52.9945 77.3085C52.3085 77.838 51.4511 78.191 50.5937 78.191C49.4789 78.191 48.364 77.6615 48.1066 76.1608H54.1953V75.4553C54.2812 72.7192 52.7378 70.9544 50.4222 70.9544ZM50.4218 72.5427C51.5363 72.5427 52.3085 73.249 52.4796 74.5729H48.1921C48.3636 73.4255 49.1355 72.5427 50.4218 72.5427ZM95.0984 75.3668V67.7773H93.2976V72.1898C92.6972 71.3958 91.8398 70.9544 90.725 70.9544C88.4097 70.9544 86.6089 72.8076 86.6089 75.3668C86.6089 77.926 88.4097 79.7793 90.725 79.7793C91.9257 79.7793 92.7832 79.3383 93.2976 78.5439V79.6028H95.0984V75.3668ZM88.4957 75.3668C88.4957 73.8665 89.4386 72.6312 90.9824 72.6312C92.4402 72.6312 93.4691 73.7785 93.4691 75.3668C93.4691 76.8671 92.4402 78.1025 90.9824 78.1025C89.4386 78.0141 88.4957 76.8671 88.4957 75.3668ZM28.2976 75.3668V71.1309H26.4968V72.1898C25.8964 71.3958 25.039 70.9544 23.9242 70.9544C21.6089 70.9544 19.8082 72.8076 19.8082 75.3668C19.8082 77.926 21.6089 79.7793 23.9242 79.7793C25.125 79.7793 25.9824 79.3383 26.4968 78.5439V79.6028H28.2976V75.3668ZM21.6089 75.3668C21.6089 73.8665 22.5523 72.6312 24.0957 72.6312C25.5535 72.6312 26.5828 73.7785 26.5828 75.3668C26.5828 76.8671 25.5535 78.1025 24.0957 78.1025C22.5523 78.0141 21.6089 76.8671 21.6089 75.3668Z" fill="black"/>
<path d="M36.4446 6.79517H63.4563V56.7453H36.4446V6.79517Z" fill="#FF5F00"/>
<path d="M38.1598 31.7705C38.1598 21.6217 42.7902 12.6199 49.9074 6.79518C44.677 2.5592 38.0742 0 30.8711 0C13.8059 0 0 14.2082 0 31.7705C0 49.3327 13.8059 63.5409 30.8707 63.5409C38.0738 63.5409 44.6766 60.9817 49.9074 56.7453C42.7902 51.009 38.1598 41.9192 38.1598 31.7705Z" fill="#EB001B"/>
<path d="M99.9008 31.7705C99.9008 49.3323 86.095 63.5409 69.0301 63.5409C61.827 63.5409 55.2243 60.9817 49.9934 56.7453C57.1965 50.921 61.7415 41.9192 61.7415 31.7705C61.7415 21.6217 57.1106 12.6199 49.9934 6.79518C55.2239 2.5592 61.827 0 69.0301 0C86.095 0 99.9008 14.2967 99.9008 31.7705Z" fill="#F79E1B"/>
</g>
<defs>
<clipPath id="clip0_403_3649">
<rect width="100" height="80" fill="white"/>
</clipPath>
</defs>
</svg>
