<svg width="100" height="88" viewBox="0 0 100 88" fill="none" xmlns="http://www.w3.org/2000/svg">
<path d="M32.3438 44.4297C32.3438 46.8125 30.6597 48.6289 28.5243 48.6289C26.9271 48.6289 25.7465 47.6133 25.7465 45.6992C25.7465 43.3164 27.3958 41.4023 29.5139 41.4023C31.1285 41.4023 32.3438 42.5156 32.3438 44.4297ZM13.9757 34.957H13.1597C12.8993 34.957 12.6389 35.1523 12.6042 35.4844L11.8576 40.6992L13.2812 40.6406C15.191 40.6406 16.6667 40.3477 17.0139 37.8672C17.4132 35.25 15.9375 34.957 13.9757 34.957ZM63.2812 34.957H62.5C62.1875 34.957 61.9792 35.1523 61.9444 35.4844L61.2153 40.6992L62.6042 40.6406C64.8611 40.6406 66.4236 40.0547 66.4236 37.125C66.4062 35.0547 64.7569 34.957 63.2812 34.957ZM100 9.625V78.375C100 83.5508 96.2674 87.75 91.6667 87.75H8.33333C3.73264 87.75 0 83.5508 0 78.375V9.625C0 4.44922 3.73264 0.25 8.33333 0.25H91.6667C96.2674 0.25 100 4.44922 100 9.625ZM22.2743 36.0703C22.2743 31.9687 19.4618 30.6016 16.25 30.6016H9.30556C8.87153 30.6016 8.4375 30.9922 8.40278 31.5195L5.55556 51.4609C5.50347 51.8516 5.76389 52.2422 6.11111 52.2422H9.40972C9.87847 52.2422 10.3125 51.6758 10.3646 51.1289L11.1458 45.9336C11.3194 44.5273 13.4375 45.0156 14.2708 45.0156C19.2361 45.0156 22.2743 41.6953 22.2743 36.0703ZM36.8924 37.7891H33.5938C32.934 37.7891 32.8993 38.8633 32.8646 39.3906C31.8576 37.7305 30.3993 37.4375 28.75 37.4375C24.4965 37.4375 21.25 41.6367 21.25 46.2656C21.25 50.0742 23.3681 52.5547 26.7535 52.5547C28.316 52.5547 30.2604 51.5977 31.3542 50.2305C31.2674 50.5234 31.1806 51.1484 31.1806 51.4414C31.1806 51.8906 31.3542 52.2227 31.7361 52.2227H34.7222C35.191 52.2227 35.5903 51.6562 35.6771 51.1094L37.4479 38.5508C37.5 38.1797 37.2396 37.7891 36.8924 37.7891ZM43.9236 56.9102L54.9826 38.8242C55.0694 38.7266 55.0694 38.6289 55.0694 38.4922C55.0694 38.1602 54.809 37.8086 54.5139 37.8086H51.1805C50.8854 37.8086 50.5729 38.0039 50.3993 38.2969L45.7986 45.9141L43.8889 38.5898C43.75 38.1602 43.3681 37.8086 42.934 37.8086H39.6875C39.3924 37.8086 39.1319 38.1602 39.1319 38.4922C39.1319 38.7266 42.5174 49.5859 42.8125 50.6211C42.3438 51.3633 39.2535 56.207 39.2535 56.793C39.2535 57.1445 39.5139 57.418 39.809 57.418H43.1424C43.4549 57.3984 43.75 57.2031 43.9236 56.9102ZM71.5799 36.0703C71.5799 31.9687 68.7674 30.6016 65.5556 30.6016H58.6632C58.1944 30.6016 57.7604 30.9922 57.7083 31.5195L54.8958 51.4414C54.8611 51.832 55.1215 52.2227 55.4514 52.2227H59.0104C59.3576 52.2227 59.6181 51.9297 59.7049 51.5977L60.4861 45.9336C60.6597 44.5273 62.7778 45.0156 63.6111 45.0156C68.5417 45.0156 71.5799 41.6953 71.5799 36.0703ZM86.1979 37.7891H82.8993C82.2396 37.7891 82.2049 38.8633 82.1528 39.3906C81.1979 37.7305 79.7222 37.4375 78.0382 37.4375C73.7847 37.4375 70.5382 41.6367 70.5382 46.2656C70.5382 50.0742 72.6562 52.5547 76.0417 52.5547C77.6562 52.5547 79.6007 51.5977 80.6424 50.2305C80.5903 50.5234 80.4688 51.1484 80.4688 51.4414C80.4688 51.8906 80.6424 52.2227 81.0243 52.2227H84.0278C84.4965 52.2227 84.8958 51.6562 84.9826 51.1094L86.7535 38.5508C86.8056 38.1797 86.5451 37.7891 86.1979 37.7891ZM94.4444 31.2852C94.4444 30.8945 94.184 30.6016 93.8889 30.6016H90.6771C90.4167 30.6016 90.1562 30.8359 90.1215 31.1289L87.309 51.4414L87.2569 51.5391C87.2569 51.8906 87.5174 52.2227 87.8646 52.2227H90.7292C91.1632 52.2227 91.5972 51.6562 91.6319 51.1094L94.4444 31.3437V31.2852ZM78.8194 41.4023C76.7014 41.4023 75.0521 43.2969 75.0521 45.6992C75.0521 47.5938 76.2674 48.6289 77.8646 48.6289C79.9479 48.6289 81.6319 46.832 81.6319 44.4297C81.6493 42.5156 80.434 41.4023 78.8194 41.4023Z" fill="black"/>
</svg>
