<svg width="36" height="36" viewBox="0 0 36 36" fill="none" xmlns="http://www.w3.org/2000/svg">
<path d="M18 2.25L4.5 6.75V20.25C4.5 27.7066 10.5434 33.75 18 33.75C25.4566 33.75 31.5 27.7066 31.5 20.25V6.75L18 2.25ZM28.9688 20.25C28.9688 26.3074 24.0574 31.2188 18 31.2188C11.9426 31.2188 7.03125 26.3074 7.03125 20.25V8.64844L18 4.78125L28.9688 8.64844V20.25Z" fill="#A4A4A4"/>
<path d="M13.3033 16.7027C13.186 16.5849 13.0466 16.4914 12.8931 16.4276C12.7395 16.3638 12.5749 16.3309 12.4086 16.3309C12.2423 16.3309 12.0777 16.3638 11.9242 16.4276C11.7706 16.4914 11.6312 16.5849 11.5139 16.7027C11.3961 16.82 11.3025 16.9595 11.2387 17.113C11.1749 17.2666 11.1421 17.4312 11.1421 17.5975C11.1421 17.7637 11.1749 17.9284 11.2387 18.0819C11.3025 18.2355 11.3961 18.3749 11.5139 18.4922L16.0631 23.0414L16.1369 23.1152C16.2479 23.2264 16.3797 23.3146 16.5248 23.3748C16.6699 23.4349 16.8254 23.4659 16.9824 23.4659C17.1395 23.4659 17.295 23.4349 17.4401 23.3748C17.5852 23.3146 17.717 23.2264 17.828 23.1152L25.6854 15.2578C25.7965 15.1469 25.8847 15.0151 25.9449 14.87C26.0051 14.7249 26.0361 14.5694 26.0361 14.4123C26.0361 14.2552 26.0051 14.0997 25.9449 13.9546C25.8847 13.8095 25.7965 13.6778 25.6854 13.5668L25.5869 13.4684C25.476 13.3572 25.3442 13.269 25.1991 13.2088C25.054 13.1486 24.8985 13.1177 24.7414 13.1177C24.5844 13.1177 24.4288 13.1486 24.2838 13.2088C24.1387 13.269 24.0069 13.3572 23.8959 13.4684L16.9807 20.3801L13.3033 16.7027Z" fill="#A4A4A4"/>
</svg>
