<svg width="36" height="36" viewBox="0 0 36 36" fill="none" xmlns="http://www.w3.org/2000/svg">
<path fill-rule="evenodd" clip-rule="evenodd" d="M13.4355 17.8193C11.964 17.4285 9 16.3328 9 13.8472C9 10.542 13.0335 6 13.0335 6C13.0335 6 14.3468 3.75 18.0413 3.75C21.735 3.75 23.6227 6 23.6227 6C23.6227 6 26.25 8.94525 26.25 13.8472C26.25 16.3733 24.768 17.3985 23.3317 17.7998C22.1647 19.1873 20.3655 20.067 18.375 20.067C16.3935 20.067 14.6032 19.1963 13.4355 17.8193ZM13.8705 15.6878C14.5635 17.3558 16.2945 18.5678 18.3743 18.5678C19.2292 18.5678 20.025 18.3623 20.7142 18.0053L20.6677 18C20.6677 18 25.1512 13.674 21.375 8.25C20.9648 7.48725 14.7165 9.375 13.875 10.5C13.3695 11.175 13.6035 13.7438 13.8713 15.6878" fill="#A4A4A4"/>
<path d="M10.8247 25.0815C10.3723 25.3587 10.0323 25.7869 9.86493 26.2905C9.69756 26.794 9.71355 27.3405 9.91007 27.8334C10.1066 28.3263 10.471 28.7339 10.9389 28.9842C11.4068 29.2345 11.9481 29.3113 12.4672 29.2011C12.9863 29.0909 13.4497 28.8009 13.7757 28.3821C14.1016 27.9634 14.269 27.4429 14.2484 26.9126C14.2277 26.3824 14.0204 25.8765 13.6629 25.4844C13.3054 25.0922 12.8208 24.839 12.2947 24.7695C12.2667 24.6689 12.2409 24.5676 12.2175 24.4658C12.1154 24.0023 12.0353 23.5343 11.9775 23.0633C11.9155 22.5871 11.8804 22.1079 11.8725 21.6278C11.8713 21.4959 11.875 21.3641 11.8837 21.2325C12.1723 21.1495 12.461 21.0753 12.75 21.0098C13.0808 20.9348 13.2772 21.3248 13.4355 21.6413L13.4437 21.6578L13.5 21.768H22.3118C22.4835 21.4425 22.8727 20.9235 23.25 21.0098C23.653 21.1013 24.0553 21.2095 24.4568 21.3345L24.4545 21.3353C24.453 21.3338 24.453 21.3343 24.4545 21.3368C24.4575 21.3473 24.474 21.3968 24.4905 21.5018C24.5095 21.6238 24.522 21.78 24.528 21.9705C24.5385 22.3485 24.5168 22.8083 24.4725 23.2718C24.4275 23.7345 24.3608 24.1823 24.2858 24.5355C24.2693 24.614 24.2527 24.6855 24.2362 24.75H23.25C23.1108 24.7501 22.9743 24.7889 22.8559 24.8622C22.7374 24.9354 22.6417 25.0402 22.5795 25.1648L21.8295 26.6648C21.7773 26.7688 21.7501 26.8836 21.75 27V28.5C21.75 28.6989 21.829 28.8897 21.9697 29.0304C22.1103 29.171 22.3011 29.25 22.5 29.25H24V27.75H23.25V27.177L23.7135 26.25H25.7865L26.25 27.177V27.75H25.5V29.25H27C27.1989 29.25 27.3897 29.171 27.5303 29.0304C27.671 28.8897 27.75 28.6989 27.75 28.5V27C27.7499 26.8836 27.7227 26.7688 27.6705 26.6648L26.9205 25.1648C26.8583 25.0402 26.7626 24.9354 26.6441 24.8622C26.5257 24.7889 26.3892 24.7501 26.25 24.75H25.773C25.8532 24.3503 25.92 23.8838 25.965 23.4158C26.0145 22.9103 26.04 22.386 26.0272 21.9285L26.0265 21.9075C29.0175 23.1713 31.5 25.2495 31.5 27.4275V31.5H4.5V27.4275C4.5 25.1535 7.2075 22.9875 10.3733 21.7448C10.3815 22.2113 10.4258 22.7385 10.4895 23.2493C10.5585 23.8005 10.6522 24.3488 10.7557 24.8003C10.7782 24.8968 10.8012 24.9905 10.8247 25.0815Z" fill="#A4A4A4"/>
<path d="M12 27.7613C12.4035 27.7613 12.75 27.4313 12.75 27C12.75 26.5695 12.4035 26.2388 12 26.2388C11.5965 26.2388 11.25 26.5688 11.25 27C11.25 27.4305 11.5965 27.7613 12 27.7613Z" fill="#A4A4A4"/>
</svg>
