<svg width="244" height="201" viewBox="0 0 244 201" fill="none" xmlns="http://www.w3.org/2000/svg">
<g clip-path="url(#clip0_693_1093)">
<path d="M33.334 75.3333L70.834 100.333L108.334 75.3333" stroke="#E70BBB" stroke-width="3" stroke-linecap="round" stroke-linejoin="round"/>
<path d="M133.333 158.667H16.6667C12.2464 158.667 8.00716 156.911 4.88155 153.785C1.75595 150.659 0 146.42 0 142V58.6667C0 54.2464 1.75595 50.0072 4.88155 46.8816C8.00716 43.7559 12.2464 42 16.6667 42H125C129.42 42 133.66 43.7559 136.785 46.8816C139.911 50.0072 141.667 54.2464 141.667 58.6667V75.3333" stroke="#E70BBB" stroke-width="3" stroke-linecap="round"/>
<path d="M151.298 121.833L141.506 99.4333H146.018L154.754 119.689H152.162L160.994 99.4333H165.154L155.394 121.833H151.298ZM170.749 121.833V99.4333H174.909V121.833H170.749ZM190.636 121.833L180.844 99.4333H185.356L194.092 119.689H191.5L200.332 99.4333H204.492L194.732 121.833H190.636ZM210.087 121.833V99.4333H214.247V121.833H210.087Z" fill="#878888"/>
</g>
<defs>
<clipPath id="clip0_693_1093">
<rect width="243.667" height="200.667" fill="white"/>
</clipPath>
</defs>
</svg>
