<svg width="92" height="68" viewBox="0 0 92 68" fill="none" xmlns="http://www.w3.org/2000/svg">
<path d="M0.166748 0.666656H91.8334V8.99999H0.166748V0.666656ZM0.166748 59H91.8334V67.3333H0.166748V59ZM77.7584 46.1417L77.0334 42.5167H68.9126L67.6209 46.1125L61.1126 46.1292C65.2987 36.1014 68.4043 28.6708 70.4293 23.8375C70.9543 22.5736 71.9056 21.943 73.2834 21.9458C74.3418 21.9542 76.0709 21.9542 78.4709 21.9458L83.5001 46.1333L77.7584 46.1417ZM70.7417 37.55H75.9751L74.0167 28.4667L70.7417 37.55ZM28.8001 21.9417L35.3417 21.95L25.2292 46.1417L18.6042 46.1375C16.3654 37.5097 14.7209 31.1139 13.6709 26.95C13.3501 25.6708 12.7126 24.7792 11.4792 24.3583C10.3848 23.9805 8.55841 23.3986 6.00008 22.6125V21.9458H16.4542C18.2626 21.9458 19.3167 22.8208 19.6584 24.6125L22.2417 38.3167L28.8001 21.9417ZM44.3292 21.95L39.1626 46.1375L32.9334 46.1292L38.1001 21.9417L44.3292 21.95ZM56.9626 21.5C58.8209 21.5 61.1709 22.075 62.5209 22.6125L61.4292 27.6292C60.2084 27.1375 58.2001 26.475 56.5126 26.5042C54.0542 26.5417 52.5376 27.5708 52.5376 28.5583C52.5376 30.1583 55.1709 30.9667 57.8876 32.7208C60.9834 34.7208 61.3876 36.5125 61.3542 38.4625C61.3084 42.5083 57.8876 46.5 50.6667 46.5C47.3709 46.45 46.1834 46.175 43.5001 45.225L44.6334 39.9917C47.3667 41.1333 48.5292 41.4958 50.8626 41.4958C53.0084 41.4958 54.8459 40.6333 54.8626 39.1292C54.8709 38.0583 54.2167 37.5292 51.8126 36.2042C49.4084 34.8792 46.0376 33.0542 46.0834 29.3708C46.1376 24.6625 50.6167 21.5 56.9626 21.5Z" fill="#050094"/>
</svg>
