<svg width="24" height="25" viewBox="0 0 24 25" fill="none" xmlns="http://www.w3.org/2000/svg">
<path d="M19.0498 5.40999C18.1329 4.4841 17.0408 3.74996 15.8373 3.25036C14.6338 2.75075 13.3429 2.49568 12.0398 2.49999C6.5798 2.49999 2.1298 6.94999 2.1298 12.41C2.1298 14.16 2.5898 15.86 3.4498 17.36L2.0498 22.5L7.2998 21.12C8.7498 21.91 10.3798 22.33 12.0398 22.33C17.4998 22.33 21.9498 17.88 21.9498 12.42C21.9498 9.76999 20.9198 7.27999 19.0498 5.40999ZM12.0398 20.65C10.5598 20.65 9.1098 20.25 7.8398 19.5L7.5398 19.32L4.4198 20.14L5.2498 17.1L5.0498 16.79C4.22735 15.4771 3.79073 13.9593 3.7898 12.41C3.7898 7.86999 7.4898 4.16999 12.0298 4.16999C14.2298 4.16999 16.2998 5.02999 17.8498 6.58999C18.6174 7.35386 19.2257 8.26254 19.6394 9.26332C20.0531 10.2641 20.264 11.3371 20.2598 12.42C20.2798 16.96 16.5798 20.65 12.0398 20.65ZM16.5598 14.49C16.3098 14.37 15.0898 13.77 14.8698 13.68C14.6398 13.6 14.4798 13.56 14.3098 13.8C14.1398 14.05 13.6698 14.61 13.5298 14.77C13.3898 14.94 13.2398 14.96 12.9898 14.83C12.7398 14.71 11.9398 14.44 10.9998 13.6C10.2598 12.94 9.7698 12.13 9.6198 11.88C9.4798 11.63 9.5998 11.5 9.7298 11.37C9.8398 11.26 9.9798 11.08 10.0998 10.94C10.2198 10.8 10.2698 10.69 10.3498 10.53C10.4298 10.36 10.3898 10.22 10.3298 10.1C10.2698 9.97999 9.7698 8.75999 9.5698 8.25999C9.3698 7.77999 9.1598 7.83999 9.0098 7.82999H8.5298C8.3598 7.82999 8.0998 7.88999 7.8698 8.13999C7.6498 8.38999 7.0098 8.98999 7.0098 10.21C7.0098 11.43 7.89981 12.61 8.0198 12.77C8.1398 12.94 9.7698 15.44 12.2498 16.51C12.8398 16.77 13.2998 16.92 13.6598 17.03C14.2498 17.22 14.7898 17.19 15.2198 17.13C15.6998 17.06 16.6898 16.53 16.8898 15.95C17.0998 15.37 17.0998 14.88 17.0298 14.77C16.9598 14.66 16.8098 14.61 16.5598 14.49Z" fill="#A4A4A4"/>
</svg>
