<svg width="25" height="25" viewBox="0 0 25 25" fill="none" xmlns="http://www.w3.org/2000/svg">
<g clip-path="url(#clip0_232_713)">
<path d="M23.0406 6.92C22.9218 6.44541 22.6799 6.01057 22.3392 5.65941C21.9986 5.30824 21.5713 5.05318 21.1006 4.92C19.3806 4.5 12.5006 4.5 12.5006 4.5C12.5006 4.5 5.62057 4.5 3.90057 4.96C3.42982 5.09318 3.00255 5.34824 2.66192 5.69941C2.32129 6.05057 2.07936 6.48541 1.96057 6.96C1.64579 8.70556 1.49181 10.4763 1.50057 12.25C1.48935 14.037 1.64334 15.8213 1.96057 17.58C2.09153 18.0398 2.33888 18.4581 2.67872 18.7945C3.01855 19.1308 3.43939 19.3738 3.90057 19.5C5.62057 19.96 12.5006 19.96 12.5006 19.96C12.5006 19.96 19.3806 19.96 21.1006 19.5C21.5713 19.3668 21.9986 19.1118 22.3392 18.7606C22.6799 18.4094 22.9218 17.9746 23.0406 17.5C23.3529 15.7676 23.5069 14.0103 23.5006 12.25C23.5118 10.463 23.3578 8.6787 23.0406 6.92Z" stroke="#6C6C6C" stroke-width="2" stroke-linecap="round" stroke-linejoin="round"/>
<path d="M10.25 15.52L16 12.25L10.25 8.97998V15.52Z" stroke="#6C6C6C" stroke-width="2" stroke-linecap="round" stroke-linejoin="round"/>
</g>
<defs>
<clipPath id="clip0_232_713">
<rect width="24" height="24" fill="white" transform="translate(0.5 0.5)"/>
</clipPath>
</defs>
</svg>
